<svg id="Calque_1" data-name="Calque 1" xmlns="http://www.w3.org/2000/svg" viewBox="0 0 718.22 333.13"><defs><style>.cls-1{fill:#f2f2f2;}.cls-2{fill:#ccc;}</style></defs><title>v2-cloud-night</title><path class="cls-1" d="M609.52,44.94h0a55.74,55.74,0,0,1-55.74,55.54A55.74,55.74,0,0,1,609.52,156h0a55.74,55.74,0,0,1,55.35-55.54h0A55.73,55.73,0,0,1,609.52,44.94Z"/><path class="cls-1" d="M517.23,186.9h0a31.11,31.11,0,0,1-31.11,31,31.11,31.11,0,0,1,31.11,31h0a31.11,31.11,0,0,1,30.89-31h0A31.09,31.09,0,0,1,517.23,186.9Z"/><path class="cls-1" d="M430,0h0a31.1,31.1,0,0,1-31.1,31A31.1,31.1,0,0,1,430,62h0a31.09,31.09,0,0,1,30.89-31h0A31.11,31.11,0,0,1,430,0Z"/><path class="cls-2" d="M614.13,253.58a116.08,116.08,0,0,0-54.44,15c-18.11-26-52-43-90.36-41.88-35.7,1-66.76,17.39-84.49,41.44-23.89-12.5-48.23-15.32-81.9-14.39-9.43.27-16.42,3.93-17.58,6.08v-2.7C283.9,196.51,195.84,141.62,109,144.09,66.28,145.3,27.83,158.32,0,178.46V333.13H718.22C714.56,287.3,669,252,614.13,253.58Z"/><path class="cls-1" d="M602.52,283.57a146.86,146.86,0,0,0-51.52,10c-17.12-17.25-49.13-28.5-85.42-27.77-33.76.69-63.12,11.61-79.89,27.52C363.1,285,333.83,280.31,302,281c-8.7.17-17.39.75-26,1.74v-1.79c-1.34-40.23-69-71.52-151-69.85C71.78,212.14,25.55,226.81,0,248v75a105.55,105.55,0,0,0,15.29,10.13H700.4C694.42,304.29,652.53,282.56,602.52,283.57Z"/></svg>