<svg id="Calque_1" data-name="Calque 1" xmlns="http://www.w3.org/2000/svg" viewBox="0 0 718.22 293.13"><defs><style>.cls-1{fill:#f2f2f2;}.cls-2{fill:#fff;}</style></defs><title>v2-cloud-day</title>
<path class="cls-1" d="M104.09,253.58a116.08,116.08,0,0,1,54.44,15c18.11-26,52-43,90.36-41.88,35.7,1,66.76,17.39,84.49,41.44,23.89-12.5,48.23-15.32,81.9-14.39,9.43.27,16.42,3.93,17.58,6.08v-2.7c1.46-60.64,89.52-115.53,176.36-113.06,42.72,1.21,81.17,14.23,109,34.37V333.13H0C3.66,287.3,49.22,252,104.09,253.58Z" transform="translate(0 -40)"/>
<path class="cls-2" d="M115.7,283.57a146.86,146.86,0,0,1,51.52,10c17.12-17.25,49.13-28.5,85.42-27.77,33.76.69,63.12,11.61,79.89,27.52,22.59-8.28,51.86-13,83.69-12.34,8.7.17,17.39.75,26,1.74v-1.79c1.34-40.23,69-71.52,151-69.85,53.22,1.08,99.45,15.75,125,36.91v75a105.55,105.55,0,0,1-15.29,10.13H17.82C23.8,304.29,65.69,282.56,115.7,283.57Z" transform="translate(0 -40)"/>
<path class="cls-2" d="M237.16,67.91C236.27,52.37,221.53,40,203.48,40c-14.17,0-26.3,7.64-31.28,18.45a46.39,46.39,0,0,0-9.18-.92c-16.68,0-30.49,8.67-32.9,20-10.34,3-17.6,10.11-17.6,18.4,0,10.83,12.41,19.64,27.87,19.92h92C248.22,115.83,261,105,261,91.7,261,79.74,250.71,69.82,237.16,67.91Z" transform="translate(0 -40)"/>
<path class="cls-2" d="M23.6,163.08c.88-15.55,15.45-27.91,33.29-27.91,14,0,26,7.63,30.92,18.44a45.36,45.36,0,0,1,9.07-.91c16.49,0,30.14,8.67,32.52,20,10.22,3,17.41,10.11,17.41,18.4,0,10.83-12.27,19.64-27.56,19.92h-91C12.67,211,0,200.2,0,186.87,0,174.91,10.21,165,23.6,163.08Z" transform="translate(0 -40)"/>
<path class="cls-2" d="M393.79,80.73c.67-15.55,11.65-27.91,25.1-27.91,10.56,0,19.6,7.63,23.31,18.44a26.13,26.13,0,0,1,6.84-.91c12.43,0,22.72,8.67,24.52,20,7.7,3,13.12,10.11,13.12,18.4,0,10.83-9.25,19.64-20.78,19.92H397.33c-11.78,0-21.33-10.8-21.33-24.13C376,92.56,383.7,82.64,393.79,80.73Z" transform="translate(0 -40)"/>
</svg>